Coordinates
version=1
nRows=19
nColumns=36
inDegrees=yes

Units are S.I. units (second, meters, Newtons, ...)
If the header above contains a line with 'inDegrees', this indicates whether rotational values are in degrees (yes) or radians (no).

endheader
time	pelvis_tilt	pelvis_list	pelvis_rotation	pelvis_tx	pelvis_ty	pelvis_tz	hip_flexion_r	hip_adduction_r	hip_rotation_r	knee_angle_r	knee_angle_r_beta	ankle_angle_r	subtalar_angle_r	mtp_angle_r	hip_flexion_l	hip_adduction_l	hip_rotation_l	knee_angle_l	knee_angle_l_beta	ankle_angle_l	subtalar_angle_l	mtp_angle_l	lumbar_extension	lumbar_bending	lumbar_rotation	arm_flex_r	arm_add_r	arm_rot_r	elbow_flex_r	pro_sup_r	arm_flex_l	arm_add_l	arm_rot_l	elbow_flex_l	pro_sup_l
     11.98333330	    -28.65142267	      1.66237678	     -2.38299078	     -0.03677852	      0.65627724	     -0.06588873	     94.87230526	    -10.10380949	      1.64338063	     89.76939020	      1.56677143	     35.22722799	      2.36084132	     -7.49999987	     94.48315704	    -13.33950470	     -3.55687341	     90.80838835	      1.58490537	     30.07120334	      9.03461499	     -7.49999987	    -29.27374649	     -0.23905509	      8.19265573	      5.17493183	    -19.69441526	     -7.71797247	     91.02619065	     90.36077399	     14.82464230	    -12.18834964	      8.02067090	     84.02037523	     85.07033406
     12.00000000	    -27.59239663	      1.91271597	     -2.27855843	     -0.03885073	      0.65632223	     -0.06602831	     94.74212943	    -10.31057432	      2.28882346	     90.38129971	      1.57745126	     35.44480825	      2.39787461	     -7.49999987	     93.86686427	    -12.92005147	     -3.82420179	     91.21724824	      1.59204132	     30.14998707	      8.74030670	     -7.49999987	    -29.11104627	     -0.50129697	      8.14444221	      5.21192328	    -19.03658613	     -8.75159152	     90.05464335	     90.39629246	     14.72320746	    -11.47405570	      7.46298974	     83.63956380	     84.88951095
     12.01666670	    -26.95659776	      1.87535631	     -2.23319501	     -0.05194502	      0.65448482	     -0.05973346	     94.89430553	    -10.42321971	      2.40356903	     90.71909804	      1.58334696	     35.37699189	      2.33738526	     -7.49999987	     94.02256516	    -12.86017306	     -3.83187191	     91.67439408	      1.60002002	     29.99898411	      8.75548330	     -7.49999987	    -28.79446874	     -0.44680295	      8.22841296	      5.65226159	    -18.99352065	     -8.88187024	     90.12096253	     90.36971496	     15.16836943	    -11.43229756	      7.34287416	     83.74118594	     84.85276854
     12.03333330	    -25.64601922	      2.18077857	     -2.28091593	     -0.04158875	      0.65639991	     -0.06611843	     93.99883046	    -10.48611948	      2.97635184	     90.82126443	      1.58513010	     35.20119342	      2.00560930	     -7.49999987	     92.71979060	    -12.56422807	     -4.19068111	     91.82463954	      1.60264229	     30.14746321	      8.81653658	     -7.49999987	    -28.57064054	     -0.76871875	      8.41854803	      4.66799540	    -18.02968364	    -11.12454611	     89.12945401	     94.92658102	     14.65576345	    -10.92281741	      6.66327083	     82.35998593	     86.52259528
     12.05000000	    -24.80358663	      2.06990460	     -2.31115392	     -0.06431018	      0.65337985	     -0.06682001	     93.81359133	    -10.55263833	      3.00584278	     90.87283552	      1.58603018	     34.78337418	      1.63055724	     -7.49999987	     92.61447483	    -12.40175212	     -4.04963263	     92.07918736	      1.60708499	     29.83255008	      8.70131123	     -7.49999987	    -28.65690239	     -0.56551157	      8.30379667	      5.50078458	    -17.95292052	    -11.69798711	     88.07967634	     94.44525499	     15.42758852	    -10.82647069	      6.15219279	     81.77945790	     86.11878300
     12.06666670	    -23.99953808	      2.35956351	     -2.54823535	     -0.05356010	      0.65484989	     -0.07280453	     93.29752474	    -10.37887993	      3.55071710	     90.78223598	      1.58444892	     34.52659872	      1.32534491	     -7.49999987	     91.79698220	    -12.25781272	     -4.39329442	     92.15650877	      1.60843451	     30.09890923	      8.49852462	     -7.49999987	    -28.06419639	     -0.74348165	      8.33689668	      5.20500723	    -17.65311338	    -12.50330952	     86.22678949	     94.02270541	     14.73251307	    -10.38856090	      5.27281888	     80.18989504	     85.74294353
     12.08333330	    -23.45345621	      2.35992195	     -2.54809489	     -0.06618338	      0.65317481	     -0.06613954	     93.10730064	    -10.35321592	      3.66623877	     90.85112682	      1.58565129	     34.08615190	      1.04532694	     -7.49999987	     91.66979467	    -12.33879374	     -4.56046992	     92.28823472	      1.61073356	     29.88531360	      8.46192095	     -7.49999987	    -27.42891062	     -0.78610966	      8.34941515	      5.87507826	    -17.43991586	    -13.06736739	     84.33756906	     93.72179161	     15.21088377	    -10.33261627	      4.70453608	     78.36293778	     85.53419431
     12.10000000	    -22.92749622	      2.48213467	     -2.67805217	     -0.06778578	      0.65227425	     -0.06613017	     93.02879648	    -10.16781020	      3.91813492	     90.94699648	      1.58732453	     33.78241703	      0.81518524	     -7.49999987	     91.51029075	    -12.41644620	     -4.76444389	     92.42161788	      1.61306153	     29.60568891	      8.39585993	     -7.49999987	    -26.18743557	     -0.95172385	      8.47853473	      6.17751603	    -17.37406318	    -13.08640069	     82.37069183	     93.44548983	     15.26656489	    -10.27449401	      4.35556568	     76.17103421	     85.30886325
     12.11666670	    -22.55097872	      2.39974439	     -2.86071169	     -0.06833416	      0.64720802	     -0.06701397	     93.01516900	     -9.94354913	      3.95110183	     91.13763551	      1.59065181	     33.60837297	      0.71287351	     -7.49999987	     91.63355802	    -12.55261184	     -4.70319580	     92.75812450	      1.61893468	     29.51475282	      8.22290857	     -7.49999987	    -24.94494868	     -0.76409115	      8.44739840	      6.00113058	    -17.11406824	    -12.71139466	     80.56815440	     92.36345281	     14.84130306	    -10.37551243	      4.16631910	     73.94973146	     85.02448313
     12.13333330	    -21.80860875	      2.36714136	     -2.97465442	     -0.06970603	      0.64683839	     -0.06723399	     92.61543661	     -9.79740548	      4.07329654	     91.32865774	      1.59398578	     33.48024242	      0.56740888	     -7.49999987	     91.29099683	    -12.60245216	     -4.71964868	     93.02412153	      1.62357720	     29.24078478	      8.10458842	     -7.49999987	    -23.84210766	     -0.66403030	      8.58153791	      5.67734333	    -16.92085058	    -12.55960755	     79.02807611	     92.34456994	     14.58152013	    -10.28871950	      4.28362739	     71.97742201	     85.07473884
     12.15000000	    -20.70660508	      2.22769848	     -3.14430706	     -0.07012810	      0.64827281	     -0.06685573	     91.70213875	     -9.66286361	      4.03058766	     91.38131544	      1.59490483	     33.29414963	      0.66974142	     -7.49999987	     90.52496435	    -12.72126463	     -4.62224725	     93.18124322	      1.62631950	     29.02659866	      8.25527977	     -7.49999987	    -23.19571325	     -0.48094018	      8.69997110	      5.81631994	    -16.72222555	    -12.37513056	     77.42371817	     92.08044636	     14.48926802	    -10.05583522	      4.00060925	     70.10001923	     84.94132929
     12.16666670	    -19.75744599	      2.02586433	     -3.31254392	     -0.07182247	      0.64845448	     -0.06720944	     90.91724323	     -9.54459984	      3.91490893	     91.45572474	      1.59620352	     33.16113002	      0.56122803	     -7.49999987	     89.93121577	    -12.85035421	     -4.42959895	     93.40336748	      1.63019629	     28.64659558	      7.87954110	     -7.49999987	    -22.03851924	     -0.18118702	      8.67444810	      6.25861278	    -16.65020767	    -11.56588581	     75.58128686	     91.70834344	     14.64458495	     -9.85143567	      3.98872678	     67.56754801	     84.49683835
     12.18333330	    -19.07888567	      1.82215461	     -3.45921528	     -0.07182151	      0.64920891	     -0.06701363	     90.22723329	     -9.40364095	      3.77005614	     91.39970316	      1.59522576	     33.03378994	      0.56625390	     -7.49999987	     89.47553835	    -13.00096873	     -4.28706495	     93.49877350	      1.63186144	     28.51207151	      8.06787459	     -7.49999987	    -20.81021682	     -0.00089459	      8.89243327	      5.85317219	    -16.30720261	    -11.66967456	     73.78554174	     94.04202634	     14.95538692	     -9.66059317	      4.40460081	     65.04996920	     87.50102419
     12.20000000	    -18.51881146	      1.75588517	     -3.55678175	     -0.08234546	      0.64789133	     -0.07474489	     90.03038065	     -9.44672122	      3.73579500	     91.44508028	      1.59601774	     32.84386839	      0.47779109	     -7.49999987	     89.30956713	    -12.91968881	     -4.13240729	     93.67657044	      1.63496459	     28.22038132	      7.98684901	     -7.49999987	    -20.48559521	      0.07070017	      8.67918491	      5.67315133	    -15.98048860	    -11.44245399	     73.59979275	     93.79673002	     15.23318192	     -9.51309564	      4.43074169	     64.98950683	     87.30713123
     12.21666670	    -18.17220142	      1.56403589	     -3.50696155	     -0.08163714	      0.64884704	     -0.07459931	     89.77571459	     -9.52870373	      3.61022905	     91.35009137	      1.59435987	     33.01076253	      0.52131488	     -7.49999987	     89.20536743	    -12.73518358	     -3.89977710	     93.73696661	      1.63601870	     28.07486379	      8.25902622	     -7.49999987	    -19.21133754	      0.31481295	      8.29882281	      5.56501783	    -15.89158900	    -10.01047158	     71.60920164	     93.83714313	     15.66360027	     -9.31255050	      4.86047632	     62.95568947	     87.15793665
     12.23333330	    -17.42894854	      1.46079649	     -3.62189985	     -0.08231174	      0.65393028	     -0.07392808	     89.04580535	     -9.48955944	      3.56292811	     91.08064940	      1.58965722	     32.92214548	      0.37640066	     -7.49999987	     88.52098856	    -12.67323143	     -3.77611753	     93.59457478	      1.63353349	     27.96900921	      8.67559230	     -7.49999987	    -18.69083137	      0.34609041	      8.04750906	      5.70470456	    -15.84677752	     -8.40011273	     69.55663743	     90.48809294	     16.09386908	     -9.16892352	      5.08365590	     61.34462964	     84.16996349
     12.25000000	    -16.63089821	      1.35743884	     -3.72786392	     -0.08295524	      0.65533852	     -0.07352515	     88.10077564	     -9.49515374	      3.50097022	     90.89952710	      1.58649604	     32.90059642	      0.18815934	     -7.49999987	     87.70101570	    -12.63208667	     -3.66687464	     93.51316397	      1.63211261	     27.99625784	      8.85051972	     -7.49999987	    -18.79962434	      0.36116368	      7.97975026	      6.04728480	    -15.64701083	     -7.61109374	     67.58503958	     91.35944389	     16.61951411	     -9.10496257	      5.56286192	     59.54413770	     84.52849947
     12.26666670	    -16.26779030	      1.30852601	     -3.69380149	     -0.08385493	      0.65518127	     -0.07409658	     87.75454275	     -9.61512709	      3.46101591	     90.88197177	      1.58618964	     32.94109808	      0.12650659	     -7.49999987	     87.40179069	    -12.50506221	     -3.59489611	     93.53397146	      1.63247576	     28.14703382	      9.28723787	     -7.49999987	    -18.70000868	      0.34870485	      7.75661612	      5.55399246	    -15.41203844	     -6.82425909	     67.35783263	     90.79141332	     16.19826411	     -9.15464267	      5.63112030	     59.80407528	     83.62457177
     12.28333330	    -15.94836073	      1.16413889	     -3.74756353	     -0.08369012	      0.65588506	     -0.07366213	     87.35719806	     -9.56136774	      3.39171815	     90.82576703	      1.58520868	     32.75878028	     -0.37283376	     -7.49999987	     87.14012232	    -12.45798646	     -3.37753346	     93.51718462	      1.63218278	     28.24675767	      9.32707878	     -7.49999987	    -18.37639324	      0.38505112	      7.84198296	      5.34060681	    -15.54526860	     -5.69102931	     66.65286018	     92.23053174	     15.70408795	     -9.10832391	      6.05623956	     58.97068476	     84.24643905
